<svg width="34" height="34" viewBox="0 0 34 34" fill="none" xmlns="http://www.w3.org/2000/svg">
<g clip-path="url(#clip0_539_662)">
<path d="M17 34C26.3888 34 34 26.3888 34 17C34 7.61116 26.3888 0 17 0C7.61116 0 0 7.61116 0 17C0 26.3888 7.61116 34 17 34Z" fill="#3C9F38"/>
<path d="M17 34C26.3888 34 34 26.3888 34 17C34 7.61116 26.3888 0 17 0C7.61116 0 0 7.61116 0 17C0 26.3888 7.61116 34 17 34Z" fill="#50BF8C"/>
<g clip-path="url(#clip1_539_662)">
<path fill-rule="evenodd" clip-rule="evenodd" d="M27.896 19.0942C28.3334 18.1686 28.65 17.1906 28.838 16.1842C29.0069 15.2843 29.0433 14.3646 28.946 13.4542L21.95 14.0842C21.9227 14.5871 21.834 15.0848 21.686 15.5662C21.5269 16.0947 21.3138 16.6054 21.05 17.0902L27.896 19.0942ZM26.342 21.6022L20.204 18.3922C19.4404 19.3448 18.5166 20.157 17.474 20.7922L21.014 26.0302C23.0847 24.95 24.9012 23.4404 26.342 21.6022ZM18.278 27.1642L16.064 21.5182C15.0753 21.9464 14.0148 22.1845 12.938 22.2202L12.548 27.6922C14.4737 27.9297 16.428 27.7496 18.278 27.1642ZM10.478 27.1642L11.678 22.1122C11.2668 22.0449 10.8643 21.9322 10.478 21.7762C10.1246 21.6323 9.78849 21.4491 9.47596 21.2302L7.12396 25.0462C7.55795 25.5031 8.04547 25.906 8.57596 26.2462C9.16812 26.6379 9.80455 26.9581 10.472 27.2002L10.478 27.1642ZM6.19996 23.8402L8.79196 20.6422C8.34296 20.1552 8.01057 19.5725 7.81996 18.9382L5.10796 20.9062C5.27218 21.9474 5.64349 22.945 6.19996 23.8402ZM4.99996 19.5982L7.65796 18.1102C7.58819 17.468 7.62877 16.8187 7.77796 16.1902L5.40796 16.7482C5.13531 17.6736 4.99789 18.6335 4.99996 19.5982ZM5.82196 15.5482C5.99606 15.1047 6.19641 14.6719 6.42196 14.2522C6.6527 13.8295 6.90503 13.419 7.17796 13.0222L8.93596 13.5322C8.74372 13.8203 8.56746 14.1188 8.40796 14.4262C8.25306 14.7276 8.11681 15.0381 7.99996 15.3562L5.82196 15.5482ZM7.99996 11.9842L9.50596 12.8002C9.9594 12.2438 10.4725 11.7388 11.036 11.2942L10.082 9.8782C9.32687 10.5171 8.63013 11.2218 7.99996 11.9842ZM11.21 9.0442L11.858 10.7002C12.4738 10.2914 13.1316 9.94949 13.82 9.6802L14 7.4662C13.0117 7.90096 12.0674 8.42937 11.18 9.0442H11.21ZM15.41 6.9382L14.81 9.3802C15.1767 9.28347 15.5496 9.21131 15.926 9.1642C16.304 9.11699 16.6851 9.09893 17.066 9.1102L18.866 6.2302C18.261 6.27733 17.6598 6.36351 17.066 6.4882C16.4902 6.59836 15.9228 6.74873 15.368 6.9382H15.41ZM20.462 6.2002L18.026 9.2002C18.7646 9.3281 19.4668 9.61469 20.084 10.0402L24.206 7.0402C23.0209 6.53036 21.7513 6.24551 20.462 6.2002ZM25.76 7.9522L20.834 10.7182C21.3786 11.3285 21.7422 12.0786 21.884 12.8842L28.43 11.3482C27.8826 9.98439 26.9561 8.80591 25.76 7.9522Z" fill="white"/>
</g>
</g>
<defs>
<clipPath id="clip0_539_662">
<rect width="34" height="34" fill="white"/>
</clipPath>
<clipPath id="clip1_539_662">
<rect width="24" height="21.6" fill="white" transform="translate(5 6.2002)"/>
</clipPath>
</defs>
</svg>
